<?xml version="1.0" encoding="UTF-8"?>
<svg xmlns="http://www.w3.org/2000/svg" viewBox="0 0 1000 220" role="img" aria-label="Mendiratta - Data, Insights, Impact">
  <g transform="translate(10,10) scale(0.365)">
    <g transform="translate(0,490) scale(0.1,-0.1)" fill="#F2B705" stroke="none">
      <path d="M630 3868 l1 -453 136 -145 c362 -384 827 -875 1098 -1159 l300 -314
242 249 c133 137 241 252 240 257 -4 12 -2000 2017 -2009 2017 -4 0 -8 -204
-8 -452z M4279 3853 c-407 -410 -1138 -1155 -1389 -1417 l-85 -88 240 -234
c132 -129 242 -234 245 -234 9 0 891 920 1179 1231 74 79 170 181 213 225 l78
81 0 452 c0 248 -3 451 -8 451 -4 0 -217 -210 -473 -467z M630 1761 c0 -762 4
-1351 9 -1351 10 0 108 88 410 370 l231 215 0 731 0 731 -316 324 c-173 178
-320 326 -325 327 -5 2 -9 -527 -9 -1347z M4427 2786 l-317 -324 0 -735 0
-735 108 -99 c59 -55 201 -186 315 -291 114 -106 212 -192 217 -192 6 0 10
502 10 1350 0 743 -4 1350 -8 1350 -5 0 -151 -146 -325 -324z M2471 1979
l-225 -228 20 -22 c44 -50 427 -429 433 -429 3 0 107 101 231 225 l225 225
-70 72 c-163 170 -380 388 -385 387 -3 -1 -106 -105 -229 -230z M1997 1602
l-67 -68 0 -512 0 -512 263 0 262 1 38 28 c21 16 75 64 120 107 l82 79 44 -48
c25 -26 50 -46 58 -43 8 3 13 -2 13 -14 0 -11 24 -37 58 -64 l57 -46 268 0
267 0 0 513 0 513 -68 67 c-37 37 -73 67 -79 67 -6 0 -119 -111 -252 -247
l-241 -248 0 -54 c0 -52 -2 -56 -66 -127 l-66 -74 -28 38 c-15 22 -39 48 -53
59 -22 17 -26 30 -29 81 l-3 60 -248 256 c-137 141 -252 256 -256 256 -3 0
-37 -30 -74 -68z m590 -724 c-2 -29 -3 -8 -3 47 0 55 1 79 3 53 2 -26 2 -71 0
-100z"/>
    </g>
  </g>
  <text x="235" y="112" font-family="Poppins" font-weight="600" font-size="72" letter-spacing="4" fill="#F2B705">MENDIRATTA</text>
  <text x="490.5" y="168" text-anchor="middle" font-family="Poppins" font-weight="500" font-size="28" letter-spacing="5" fill="#F2F2F2">DATA &#8226; INSIGHTS &#8226; IMPACT</text>
</svg>
